<?xml version="1.0" encoding="UTF-8"?>
<svg enable-background="new 0 0 496 512" version="1.1" viewBox="0 0 496 512" xml:space="preserve" xmlns="http://www.w3.org/2000/svg">
<path d="m68.021 321.07c9.1849-16.686 20.097-31.857 29.973-47.678 1.9792-3.1705 1.9489-5.802-0.20873-8.6759-3.7736-5.0264-6.3479-10.791-10.681-15.575-2.7184-3.0014-3.1595-7.8732-5.5171-11.592-11.825-18.653-24.1-37.065-31.273-58.244-4.5269-13.365-7.768-26.937-6.536-41.124 1.3572-15.629 9.5394-26.942 23.044-34.699 12.487-7.1727 25.985-7.746 39.755-6.3047 19.207 2.0104 37.35 8.0192 55.15 15.209 1.2351 0.49887 2.4784 0.97916 3.7292 1.437 7.4944 2.7429 7.5695 2.7994 12.562-3.4092 8.7888-10.93 18.158-21.295 29.033-30.202 2.4171-1.9797 2.8144-3.8258 1.6792-6.8907-3.8299-10.34-2.3311-20.221 4.9815-28.459 8.3666-9.4253 18.79-13.544 31.456-9.4159 10.953 3.5693 17.453 11.17 20.073 22.225 1.3414 5.6595 0.77432 11.307-1.1198 16.71-1.0068 2.8722-0.43173 4.6645 1.8766 6.4341 10.908 8.3621 20.376 18.183 28.676 29.103 2.5693 3.3805 5.0924 3.597 8.9553 2.1615 16.664-6.1925 33.294-12.534 50.865-15.883 15.418-2.9387 30.665-3.5449 45.837 1.543 19.706 6.6082 31.99 23 32.85 43.81 0.86606 20.965-5.8622 40-14.537 58.532-2.6671 5.6978-6.0561 11.056-9.0811 16.588-1.0979 2.0079-2.0982 4.0692-3.5972 6.9915 10.344 1.6701 14.971 7.997 16.487 17.325 0.73404 4.5185-0.43869 8.3571-2.9639 11.741-3.7488 5.0241-9.0873 6.9859-15.311 6.8081-6.4227-0.18347-9.6948-5.242-14.042-9.3712-3.9334 3.4447-5.6871 8.0111-8.2423 11.964-5.2267 8.0851-4.8239 7.8887 0.58771 15.702 15.36 22.176 30.733 44.374 42.046 69.02 5.6747 12.363 9.6247 25.196 9.7007 38.954 0.13876 25.119-16.637 44.132-41.531 48.604-16.763 3.0114-32.803 0.46316-48.849-3.6083-12.953-3.2867-25.358-8.1755-37.389-13.94-4.2559-2.0393-6.8029-1.4171-9.4516 2.6778-8.9845 13.891-19.227 26.81-31.698 37.786-2.1508 1.8929-1.9447 4.0327-1.9942 6.3176-0.23309 10.759-5.4702 18.126-15.014 22.863-16.063 7.973-33.702-5.5547-35.436-19.173-0.41113-3.2303-1.6125-5.4964-4.0729-7.5772-12.978-10.976-23.033-24.489-32.526-38.414-2.9664-4.3514-5.7505-5.2967-10.729-3.0345-16.087 7.3093-32.566 13.544-50.113 16.601-13.987 2.4367-27.578 1.3591-40.715-3.9417-18.101-7.304-26.702-21.67-29.007-40.352-2.2691-18.396 4.7765-34.673 12.199-50.75 2.9259-6.3372 6.5933-12.332 10.118-18.792m109.34-24.973c3.8015 9.0248 8.9974 17.119 16.43 23.57 16.847 14.623 36.415 19.405 58.178 15.436 12.594-2.2968 23.943-7.9072 32.961-16.722 24.79-24.233 28.31-61.988 8.5916-90.561-11.939-17.3-28.85-27.323-49.92-28.282-27.821-1.2663-48.331 12.215-62.41 35.256-11.7 19.148-11.944 39.758-3.8296 61.302m-42.504-107.12c-2.8003-4.0209-3.3158-7.3855 2.3521-9.3777 1.4556-0.5116 1.9462-2.2048 2.4517-3.6243 5.3318-14.973 13.009-28.789 20.929-42.487 3.8069-6.585 3.3363-7.8282-4.0006-9.9645-10.672-3.1073-21.329-6.2776-32.06-9.1699-15.673-4.2244-30.976-3.244-45.67 4.008-4.7154 2.3272-8.5219 5.6837-11.447 10.122-7.2994 11.074-6.419 23.45-4.252 35.301 4.3915 24.016 15.818 45.364 27.833 66.321 4.9606 8.6524 10.175 17.16 15.31 25.712 1.372 2.2852 3.5761 4.1282 5.2213 0.88657 4.5204-8.9069 12.437-15.763 15.467-25.476 4.2129-13.502 3.4271-27.992 7.866-42.251m47.725 3.9412c-0.41383-2.7645-6.2259-4.7259-1.4346-8.2213 6.0419-4.4077 11.653-9.3582 18.204-13.14 7.8492-4.5311 15.293-9.7639 22.781-14.608-0.68732-2.5897-2.5007-3.3195-4.0152-4.2379-11.692-7.0899-24.006-13.039-36.006-19.564-3.988-2.1685-6.265-0.99777-8.5013 2.639-16.128 26.228-27.893 54.328-33.194 84.598-4.1375 23.628-4.8889 47.645-0.67601 71.55 1.038 5.8898 1.6268 11.836 3.8321 17.482 1.0256 2.6261 2.5597 4.1955 5.4155 4.3694 3.0101 0.18335 4.4152-1.7319 5.6701-4.0677 2.7772-5.1692 4.1167-10.453 2.4883-16.337-2.608-9.4243-2.9582-19.113-2.2633-28.77 1.0965-15.238 5.8775-29.314 14.711-41.875 9.6047-13.659 22.035-23.736 37.48-30.341 13.988-5.9811 28.351-8.425 43.367-6.1682 22.979 3.4537 41.148 15.035 54.299 34.014 13.918 20.085 18.706 42.351 14.148 66.521-0.55569 2.9467-2.081 5.9207-0.87817 9.1724 9.29-5.0915 9.5139-39.356-0.25595-62.215-8.3863-19.622-22.344-34.771-41.688-44.051-31.71-15.213-61.742-10.233-89.902 10.048-1.4003-2.6898-2.3057-4.4291-3.5819-6.7975m200.97 41.231c8.7621-12.945 12.881-27.975 18.942-42.135 4.7982-11.21 8.447-22.687 9.9639-34.882 2.1935-17.634-5.9026-34.304-20.981-41.74-6.4939-3.2024-13.441-4.7234-20.686-5.1419-21.137-1.2212-40.409 6.0905-59.82 12.845-3.6498 1.27-3.467 3.3225-1.6877 6.1028 5.7508 8.9863 10.659 18.436 15.118 28.118 8.5295 18.521 14.051 38.067 19.245 57.691 1.6854 6.3679 6.37 9.128 11.203 12.484 1.4574-2.6331 0.90265-4.7506 0.33115-6.7936-1.3885-4.9637-1.8759-10.107-2.8934-15.139-1.6881-8.3475 6.1487-14.046 16.356-15.801 7.3173-1.2586 13.252 1.7699 17.665 7.7621 7.2631-10.084 14.822-31.343 15.306-42.453 0.57138-13.1-7.3003-25.041-18.573-27.946 0.24338 0.70853 0.44254 1.323 0.66437 1.9291 3.1206 8.5254 0.65207 17.782-6.1149 22.917-6.3281 4.8027-17.332 4.9031-24.006 0.21925-7.9742-5.5962-11.258-16.077-7.6015-24.261 3.8936-8.7131 14.403-14.981 22.92-11.746 9.0684 3.4446 18.718 6.21 26.4 12.718 6.9982 5.9284 10.54 13.551 10.961 22.676 0.20047 4.3505-0.12146 8.665-1.0725 12.907-2.9954 13.36-6.8904 26.333-16.356 37.181 2.8829 8.5254 2.2699 17.04-3.3188 24.783-4.4756 6.2007-8.8025 12.561-14.486 17.773-3.7328 3.4229-2.4079 6.8204-0.48355 10.887 5.4431-6.4663 9.2156-13.279 13.006-20.956m-66.941 159.72c6.3786 2.4023 12.694 4.9914 19.149 7.169 14.579 4.9187 29.35 8.954 44.987 6.6506 10.122-1.4911 19.916-5.0781 24.097-14.818 4.8914-11.396 7.139-24.069 0.88419-35.777-7.2733-13.613-17.173-25.682-24.256-39.501-5.1602-10.067-12.136-19.344-16.184-29.793-2.972-7.672-7.2473-14.414-10.804-21.635-0.7677-1.5585-1.124-3.5593-3.2617-4.1679-1.5382 1.326-0.84805 3.119-0.98828 4.6815-0.47562 5.2995-0.15753 10.771-1.3695 15.885-3.9481 16.662-8.0628 33.298-13.673 49.513-0.7432 2.1479-1.8057 4.2533-1.174 6.7608 0.70618 2.8032 3.5984 2.288 5.5937 3.5891-1.8981 1.8109-3.4581 3.2883-5.006 4.7784-2.2391 2.1555-5.6016 3.0969-6.7848 6.3995-4.2112 11.755-8.5714 23.451-13.812 34.799-1.0767 2.3313-0.7796 4.2259 2.6037 5.4643m-45.399 38.85c5.6458-6.7766 11.339-13.513 16.119-20.96 1.6321-2.5425 2.3011-4.8345-0.78992-6.8062-14.724-9.3923-29.435-18.805-44.157-28.202-1.8028-1.1508-3.5995-1.5037-5.5708-0.1962-16.101 10.679-32.502 20.856-49.669 29.762-3.4431 1.7862-4.3548 4.2422-1.6856 7.6623 5.8377 7.48 11.297 15.265 17.326 22.583 4.0616 4.9298 8.6799 9.4561 14.14 12.828 14.222-15.206 22.13-16.143 39.242-4.8104 2.0704 1.3712 3.431 0.75504 4.7762-0.67395 3.3074-3.5137 6.5338-7.1036 10.269-11.186m-157.59-112.01c-3.6482-7.1036-6.4772-14.437-5.7151-24.067-6.1425 10.93-11.57 20.439-16.855 30.026-7.9416 14.409-16.436 28.585-19.396 45.149-2.0549 11.497-2.2019 22.294 9.1293 29.727 9.3971 6.1639 19.9 7.5648 30.624 6.5629 16.945-1.583 31.831-10.065 47.796-14.822-0.060516-2.7336-1.3374-4.5431-2.2693-6.4449-4.7657-9.7265-9.3269-19.588-12.107-30.046-1.7641-6.6353-5.3774-11.203-10.998-14.676-8.4015-5.1911-14.416-12.721-20.208-21.409m145.17-230.13c-3.2385-2.5583-6.1884-2.5726-9.9629-0.35429-8.4586 4.9712-17.337 4.5459-25.587-0.54482-3.5281-2.177-5.8749-1.7842-8.8255 0.59553-9.1279 7.3619-16.901 16.043-24.524 24.864-4.2179 4.8802-3.7482 6.8545 1.9245 9.9061 13.78 7.4128 27.617 14.721 41.327 22.26 2.456 1.3505 4.3307 1.1836 6.409-0.28558 12.55-8.8719 26.371-15.557 39.703-23.085 8.1762-4.6171 8.178-5.6939 1.5097-12.647-6.8125-7.1031-14.022-13.767-21.974-20.709m33.743 40.75c-13.488 7.3032-27.889 13.053-40.036 22.583 0.92764 2.4567 2.4162 3.2481 3.8624 4.0461 7.2867 4.0208 14.673 7.8693 21.859 12.062 9.0561 5.2844 17.962 10.827 26.292 17.235 1.1944 0.91899 2.4654 2.0252 4.0226 0.95802 1.3553-0.92888 0.8306-2.3651 0.51849-3.6657-1.0514-4.381-1.9748-8.7881-5.9576-11.728-1.1449-0.84524-2.2755-2.0112-1.5673-4.1318 2.7535-1.0421 5.6751-0.59897 8.6337-0.23428 4.5182 0.55692 5.4998-0.43379 3.7821-4.5094-4.5323-10.753-9.8674-21.115-16.289-30.883-1.0219-1.5546-2.2026-3.0858-5.1199-1.732m-212.4 194.29c-7.8951 16.689-16.468 33.149-18.414 51.935-1.9032 18.373 5.6143 35.486 23.615 40.722 5.5941 1.627 11.346 2.6223 17.225 2.6519 19.84 0.099762 38.377-5.3556 56.412-13.07 7.3994-3.1649 7.9432-5.7227 2.0874-11.727-7.1277 5.6923-15.867 8.1486-24.144 11.401-15.505 6.0931-31.438 10.272-48.097 4.6545-15.787-5.3239-22.911-13.37-23.074-29.68-0.092872-9.3118 1.7989-18.331 5.2587-26.77 9.4858-23.138 21.719-44.899 34.673-66.256 1.3877-2.2879 3.5898-4.3189 2.6718-9.0629-11.429 14.538-19.644 29.548-28.215 45.201m301.76 94.994c7.9556-1.4577 15.396-4.0118 21.789-9.2661 8.9031-7.3177 13.952-23.885 9.6512-34.44-0.012634 7.5244-0.52765 14.105-4.3306 19.964-8.039 12.384-19.809 17.91-34.125 18.313-21.951 0.61764-41.724-7.2239-60.966-16.629-2.7878-1.3625-4.1764-1.1578-5.6544 1.3194-1.5593 2.6133-0.89285 4.4488 1.7916 5.5864 3.83 1.623 7.6744 3.2187 11.559 4.7057 19.116 7.3183 38.615 12.518 60.286 10.447m-101.69-59.66c-1.6878-2.9775-4.5453-5.6044-7.5759-4.4316-4.6693 1.807-9.5535 2.3677-14.215 3.8896-1.5129 0.4939-3.1081 1.2612-3.4943 3.172 0.6816 2.071 2.5242 3.0311 3.9619 4.38 10.673 10.014 24.828 13.926 37.073 21.184 2.1767 1.2902 3.673 0.18564 4.9341-1.7615 3.833-5.918 5.9848-12.584 8.6149-19.036 0.36496-0.8952 0.42422-1.9772-0.99808-2.9373-11.412 6.1435-23.665 9.6259-36.966 8.2514-0.32724-3.3882 1.9718-4.0367 3.2591-5.412 1.9866-2.1226 5.1229-3.2711 5.407-7.2986m-81.164 24.545c0.71078-0.43082 1.4632-0.80624 2.1243-1.3032 1.7437-1.3107 5.0339-1.7512 4.2083-4.7261-0.67644-2.4377-3.5548-1.9171-5.6315-2.2144-11.418-1.6346-22.377-4.8591-32.964-9.408-1.4373-0.61762-2.8292-1.953-4.5149-0.67432-0.16121 0.38327-0.46529 0.74243-0.38817 0.97528 3.0933 9.3384 7.5456 18.047 12.511 26.497 1.2912 2.1972 3.3215 2.4604 5.6176 1.1973 6.1133-3.3628 12.27-6.6466 19.037-10.343m179.98-91.119c-2.2655-3.7816-3.5961-8.3783-8.7581-9.7758 10.689 22.862 24.677 43.798 37.019 65.674-6.7795-19.704-17.056-37.625-28.261-55.898m-180.37 62.296c1.3567 4.2685 14.993 15.476 19.397 15.679 2.5771 0.11832 4.2659-1.7419 5.3281-3.8351 0.98041-1.9319-0.56975-3.0879-2.0293-3.9396-5.4275-3.1672-10.877-6.2986-16.354-9.378-2.1715-1.2207-4.3703-1.7884-6.3416 1.474m121.13-30.354c-2.884 2.1914-5.5337 4.5149-5.2756 8.7249 7.2426-0.65179 9.0408-2.5184 9.1607-9.1681-1.1306-0.93927-2.1812-0.085205-3.8851 0.44327m-90.372-285.08c-4.338 1.5711-7.6949 4.2274-9.6646 8.4661 5.4859-1.2877 9.5501-4.5607 13.347-8.4176-1.215-1.0829-2.1193-0.21566-3.6826-0.048527z"/>
<path d="m44.895 290.68c8.2382-0.98468 14.673 2.7702 17.937 10.165 2.7407 6.2081 0.96043 13.375-4.4927 18.086-5.415 4.6782-13.082 5.07-19.504 0.99655-10.022-6.3566-9.2053-21.162 1.5493-27.434 1.2784-0.7456 2.7478-1.1638 4.5106-1.8135z"/>
<path d="m437.16 323.35c-7.4901 4.7377-15.078 3.6851-19.868-2.4989-5.4519-7.0384-5.3096-17.675 0.30658-22.928 5.5068-5.1507 15.92-5.2566 21.606-0.21964 5.7574 5.1002 6.7513 15.051 2.041 21.473-1.0695 1.4579-2.5049 2.6474-4.0854 4.1742z"/>
<path d="m456.21 267.06c3.3288 6.9847 1.7228 12.707-4.2117 16.039-5.9926 3.3643-12.169 1.5181-16.205-4.8435-3.1588-4.98-1.7309-11.165 3.4297-14.856 5.0265-3.5954 11.787-2.2577 16.987 3.6612z"/>
<path d="m76.086 258.75c-12.146 2.5155-23.025-5.2872-21.526-16.328 3.5737 4.3324 8.3625 5.7746 12.272 8.4932 2.8936 2.012 5.2681 4.2352 9.0574 4.5301 2.3859 0.18573 2.739 1.6995 0.19604 3.3043z"/>
<path d="m234 297.23c-13.995-3.3544-22.697-15.61-21.216-29.346 1.4772-13.701 13.004-24.897 25.966-25.22 15.134-0.37796 27.072 9.014 29.658 22.795 2.9651 15.804-8.1447 35.617-34.407 31.772z"/>
<path d="m108.25 117.93c2.454-0.056107 4.45-0.13836 6.4437-0.099472 1.8977 0.037002 4.0229 0.31552 4.1538 2.6372 0.14932 2.6478-2.2876 2.5075-3.9963 2.5658-6.6978 0.22852-13.26 1.2856-19.553 3.5131-18.178 6.4353-21.687 15.272-21.228 28.986 0.32224 9.6274 2.4396 18.721 6.0804 27.559 1.9277 4.6794 3.698 9.4237 5.6408 14.398-3.8855 0.99487-6.3469 0.19296-7.5756-2.933-5.0504-12.849-9.626-25.776-10.564-39.787-1.2872-19.232 14.773-31.363 27.854-34.852 3.9855-1.063 8.1834-1.3297 12.743-1.9879z"/>
<path d="m118.83 168.12c-7.1421 2.8263-12.008 1.977-16.229-2.5862-4.0208-4.3466-4.8179-9.7444-2.2545-15.268 2.309-4.9752 7.5965-7.9376 13.508-7.5679 5.2086 0.32584 9.7188 4.2005 11.36 9.7595 1.8187 6.1603-0.090454 11.046-6.384 15.662z"/>
<path d="m94.041 222.3c-0.99743-14.362 5.7422-26.128 16.498-28.097-0.57642 5.1893-2.0171 10.437-5.3929 13.356-5.3457 4.6224-5.1498 10.372-6.028 16.144-0.236 1.5511 0.43368 3.3994-1.4762 4.4968-2.9156-0.70756-2.5052-3.5504-3.6014-5.9002z"/>
<path d="m162.04 172.29c6.8425-5.6523 15.003-5.3919 23.373-5.8864-5.7905 4.4949-9.101 10.913-14.995 17.268-0.13739-6.9023-5.2144-8.0962-8.3779-11.382z"/>
<path d="m372.21 175.42c-5.3621 2.7126-8.7253 2.282-11.234-1.3851-2.3184-3.3887-3.255-6.9824-0.15488-10.471 2.9413-3.31 8.1436-3.8406 11.817-1.3305 4.2574 2.9094 4.2138 6.8252-0.42764 13.187z"/>
<path d="m372.76 398.34c-13.747-2.9004-23.164-14.632-23.105-28.336 0.057953-13.372 9.1564-24.724 22.68-26.951 10.522-1.7327 20.201 1.5325 26.607 10.15 6.9955 9.4109 7.4836 20.211 1.8604 30.624-5.8532 10.838-15.125 15.971-28.042 14.513z"/>
<path d="m79.738 382.94c-4.92-12.281 1.6549-26.278 14.052-30.624 13.342-4.6777 27.428 2.0991 31.273 15.046 3.5098 11.819-1.3669 23.93-11.609 28.832-11.701 5.5995-22.301 2.7887-30.125-8.0032-1.1692-1.6127-2.2831-3.2655-3.591-5.2496z"/>
</svg>
